<svg id="Outline" xmlns="http://www.w3.org/2000/svg" viewBox="0 0 512 512"><defs><style>.cls-1{fill:#0051ff;}</style></defs><title>contact</title><path class="cls-1" d="M405.33,21.33H106.67A106.8,106.8,0,0,0,0,128V384A106.8,106.8,0,0,0,106.67,490.67H405.33A106.8,106.8,0,0,0,512,384V128A106.8,106.8,0,0,0,405.33,21.33ZM106.67,64H405.33a64,64,0,0,1,59.31,40.26L301.27,267.65a64.15,64.15,0,0,1-90.54,0L47.36,104.26A64,64,0,0,1,106.67,64ZM405.33,448H106.67a64,64,0,0,1-64-64V160l137.9,137.81a106.8,106.8,0,0,0,150.86,0L469.33,160V384A64,64,0,0,1,405.33,448Z"/></svg>