<svg id="Outline" xmlns="http://www.w3.org/2000/svg" viewBox="0 0 512 512"><defs><style>.cls-1{fill:#0051ff;}</style></defs><title>skills</title><path class="cls-1" d="M470.55,111.8,313.24,36.86a111.47,111.47,0,0,0-112.7-1L41.46,111.8c-.6.3-1.22.62-1.8,1a78.74,78.74,0,0,0,1.8,137.71l43.88,20.91V375.91a106.81,106.81,0,0,0,75.07,101.93A332.33,332.33,0,0,0,256,490.9,331.91,331.91,0,0,0,351.6,478,106.81,106.81,0,0,0,426.67,376V271.33l42.67-20.39v176a21.34,21.34,0,1,0,42.67,0v-256C512.15,145.84,492.37,122.7,470.55,111.8ZM384,376a64,64,0,0,1-44.8,61.07A290,290,0,0,1,256,448.23a290.05,290.05,0,0,1-83.2-11.14A64,64,0,0,1,128,376V291.71l70.77,33.7a112.46,112.46,0,0,0,57.7,15.77,106.59,106.59,0,0,0,55-14.81L384,291.71ZM452.27,212l-160.89,76.8a70.29,70.29,0,0,1-72.32-1L61.64,212.92a36.09,36.09,0,0,1-.79-63.1L220.74,73.44a70.42,70.42,0,0,1,72.32,1l157.31,74.95a36.86,36.86,0,0,1,19,31.79A36.27,36.27,0,0,1,452.27,212Z"/></svg>